<?xml version="1.0" encoding="utf-8" standalone="yes"?>
<!DOCTYPE svg PUBLIC "-//W3C//DTD SVG 1.1//EN" "http://www.w3.org/Graphics/SVG/1.1/DTD/svg11.dtd">
<svg width="1122" height="948" viewBox="0 0 1122 948" style="fill:none;stroke:none;fill-rule:evenodd;clip-rule:evenodd;stroke-linecap:round;stroke-linejoin:round;stroke-miterlimit:1.5;" version="1.1" xmlns="http://www.w3.org/2000/svg" xmlns:xlink="http://www.w3.org/1999/xlink"><style class="text-font-style fontImports" data-font-family="Roboto">@import url('https://fonts.googleapis.com/css2?family=Roboto:wght@400;700&amp;display=block');</style><rect id="" x="0" y="0" width="1122" height="948" style="fill: #ffffff;"></rect><g id="items" style="isolation: isolate"><g id="blend" style="mix-blend-mode: normal"><g id="g-root-tf_mgq1su1g1v5x-fill" data-item-order="-1063656"><g id="tf_mgq1su1g1v5x-fill" stroke="none" fill="#ffffff"><g><path d="M 0 0L 1122 0L 1122 948L 0 948Z"></path></g></g></g><g id="g-root-cp_0_g-0_zrjwri1g8utf-fill" data-item-order="-915038" transform="translate(356, 164)"><g id="cp_0_g-0_zrjwri1g8utf-fill" stroke="none" fill="#666666"><g><path d="M 730 10L 640 64L 640 118L 550 172L 550 226L 460 280L 460 334L 370 388.003L 370 442L 280 496L 280 550L 190 604L 190 658L 100 712L 10 658L 10 673.609L 100 727.609L 202 666.109L 202 612.009L 292 558L 292 504.009L 382 449.982L 382 396.012L 472 342L 472 288.009L 562 234.003L 562 176.4L 652 125.994L 652 72.0089L 730 25.6089L 730 10Z"></path></g></g><g id="cp_0_g-0_zrjwri1g8utf-fill" stroke="none" fill="#666666"><g><path d="M 640 64L 550 10L 550 64L 640 118L 640 64Z"></path></g></g><g id="cp_0_g-0_zrjwri1g8utf-fill" stroke="none" fill="#666666"><g><path d="M 550 172L 460 118L 460 172L 550 226L 550 172Z"></path></g></g><g id="cp_0_g-0_zrjwri1g8utf-fill" stroke="none" fill="#666666"><g><path d="M 460 280L 370 226L 370 280L 460 334L 460 280Z"></path></g></g><g id="cp_0_g-0_zrjwri1g8utf-fill" stroke="none" fill="#666666"><g><path d="M 370 388L 280 334L 280 388L 370 442L 370 388Z"></path></g></g><g id="cp_0_g-0_zrjwri1g8utf-fill" stroke="none" fill="#666666"><g><path d="M 280 496L 190 442L 190 496L 280 550L 280 496Z"></path></g></g><g id="cp_0_g-0_zrjwri1g8utf-fill" stroke="none" fill="#666666"><g><path d="M 190 604L 100 550L 100 605L 190 658L 190 604Z"></path></g></g></g><g id="g-root-cp_1_g-1_mg3ee61g8wej-fill" data-item-order="-915022" transform="translate(356, 758)"><g id="cp_1_g-1_mg3ee61g8wej-fill" stroke="none" fill="#4e88e7"><g><path d="M 100 10L 10 64L 100 118L 190 64L 100 10ZM 29 64L 100 22L 171 64L 100 106L 29 64Z"></path></g></g></g><g id="g-root-cp_2_g-2_i09w9q1g8x6t-fill" data-item-order="-915018" transform="translate(446, 650)"><g id="cp_2_g-2_i09w9q1g8x6t-fill" stroke="none" fill="#3cc583"><g><path d="M 100 10L 10 64L 100 118L 190 64L 100 10ZM 29 64L 100 22L 171 64L 100 106L 29 64Z"></path></g></g></g><g id="g-root-cp_3_g-3_959d3y1g8utr-fill" data-item-order="-915014" transform="translate(536, 542)"><g id="cp_3_g-3_959d3y1g8utr-fill" stroke="none" fill="#92bd39"><g><path d="M 100 10L 10 64L 100 118L 190 64L 100 10ZM 29 64L 100 22L 171 64L 100 106L 29 64Z"></path></g></g></g><g id="g-root-cp_4_g-4_4pfuzi1g8vm1-fill" data-item-order="-915010" transform="translate(626, 434)"><g id="cp_4_g-4_4pfuzi1g8vm1-fill" stroke="none" fill="#1eabda"><g><path d="M 100 10L 10 64L 100 118L 190 64L 100 10ZM 29 64L 100 22L 171 64L 100 106L 29 64Z"></path></g></g></g><g id="g-root-cp_5_g-5_9mcv21g8web-fill" data-item-order="-915006" transform="translate(716, 326)"><g id="cp_5_g-5_9mcv21g8web-fill" stroke="none" fill="#e0cb15"><g><path d="M 100 10L 10 64L 100 118L 190 64L 100 10ZM 29 64L 100 22L 171 64L 100 106L 29 64Z"></path></g></g></g><g id="g-root-cp_6_g-6_1qf3ela1g8wzx-fill" data-item-order="-915002" transform="translate(806, 218)"><g id="cp_6_g-6_1qf3ela1g8wzx-fill" stroke="none" fill="#de8431"><g><path d="M 100 10L 10 64L 100 118L 190 64L 100 10ZM 29 64L 100 22L 171 64L 100 106L 29 64Z"></path></g></g></g><g id="g-root-cp_7_g-7_1cu9rxa1ga9zj-fill" data-item-order="-914998" transform="translate(896, 110)"><g id="cp_7_g-7_1cu9rxa1ga9zj-fill" stroke="none" fill="#e55753"><g><path d="M 100 10L 10 64L 100 118L 190 64L 100 10ZM 29 64L 100 22L 171 64L 100 106L 29 64Z"></path></g></g></g><g id="g-root-cp_2_text-2_18eg9su1gaart-fill" data-item-order="-914980" transform="translate(170, 656)"><g id="cp_2_text-2_18eg9su1gaart-fill" stroke="none" fill="#3cc583"><g><path d="M 10 10L 16 10L 16 106L 10 106Z"></path></g></g></g><g id="g-root-cp_3_text-3_13ymroe1gabk2-fill" data-item-order="-914968" transform="translate(260, 560)"><g id="cp_3_text-3_13ymroe1gabk2-fill" stroke="none" fill="#92bd39"><g><path d="M 10 10L 16 10L 16 82L 10 82Z"></path></g></g></g><g id="g-root-cp_1_text-1_v3m8im1ga96z-fill" data-item-order="-914956" transform="translate(80, 782)"><g id="cp_1_text-1_v3m8im1ga96z-fill" stroke="none" fill="#4e88e7"><g><path d="M 10 10L 16 10L 16 106L 10 106Z"></path></g></g></g><g id="g-root-cp_4_text-4_qnsqe61ga9z8-fill" data-item-order="-914944" transform="translate(350, 434)"><g id="cp_4_text-4_qnsqe61ga9z8-fill" stroke="none" fill="#1eabda"><g><path d="M 10 10L 16 10L 16 118L 10 118Z"></path></g></g></g><g id="g-root-cp_5_text-5_hs5q5a1gaarx-fill" data-item-order="-914932" transform="translate(440, 332)"><g id="cp_5_text-5_hs5q5a1gaarx-fill" stroke="none" fill="#e0cb15"><g><path d="M 10 10L 16 10L 16 106L 10 106Z"></path></g></g></g><g id="g-root-cp_6_text-6_dcc80u1gabk6-fill" data-item-order="-914920" transform="translate(530, 236)"><g id="cp_6_text-6_dcc80u1gabk6-fill" stroke="none" fill="#de8431"><g><path d="M 10 10L 16 10L 16 82L 10 82Z"></path></g></g></g><g id="g-root-cp_7_text-7_4hbov21ga973-fill" data-item-order="-914908" transform="translate(620, 116)"><g id="cp_7_text-7_4hbov21ga973-fill" stroke="none" fill="#e55753"><g><path d="M 10 10L 16 10L 16 106L 10 106Z"></path></g></g></g><g id="g-root-ic_phon_1q8unq61ga9l5-fill" data-item-order="-2304" transform="translate(422, 788)"><g id="ic_phon_1q8unq61ga9l5-fill" stroke="none" fill="#4e88e7"><g><path d="M 49 16C 49 19.313709 46.313709 22 43 22C 39.686295 22 37 19.313709 37 16C 37 12.686292 39.686295 10 43 10C 46.313709 10 49 12.686292 49 16ZM 18 28C 18 26.89543 18.895432 26 20 26L 30 26C 31.10457 26 32 25.104568 32 24C 32 22.895432 31.10457 22 30 22L 20 22C 16.686291 22 14 24.686291 14 28L 14 52C 14 55.313709 16.686291 58 20 58L 32 58C 35.313709 58 38 55.313709 38 52L 38 40C 38 38.895432 37.104568 38 36 38C 34.895432 38 34 38.895432 34 40L 34 48L 18 48L 18 28ZM 31.785999 31.722C 33.368458 27.581371 37.102356 24.648525 41.5 24.091999L 41.5 30C 41.5 30.828428 42.171574 31.5 43 31.5C 43.828426 31.5 44.5 30.828428 44.5 30L 44.5 24.091999C 48.898392 24.647833 52.633209 27.580793 54.216 31.722C 54.655998 32.877998 53.708 34 52.470001 34L 33.529999 34C 32.292 34 31.344 32.877998 31.784 31.722Z"></path></g></g></g><g id="g-root-ic_chec_8x5db21fusqv-fill" data-item-order="-2304" transform="translate(962, 140)"><g id="ic_chec_8x5db21fusqv-fill" stroke="none" fill="#e55753"><g><path d="M 27.4 52.779999C 27.578102 52.800629 27.753616 52.724319 27.860001 52.580002C 28.029547 52.438747 28.086439 52.203045 28 52C 27.077017 50.124783 26.533289 48.085804 26.4 46C 26.37528 45.76432 26.194347 45.575161 25.959999 45.539997C 21.548391 45.147701 17.312252 43.625446 13.66 41.120003C 13.501678 41.017979 13.298322 41.017979 13.139999 41.119999C 12.968178 41.198746 12.858564 41.370995 12.86 41.559998L 12.86 45C 12.76 48.779999 19.02 52 27.4 52.779999ZM 13.559999 32.18C 13.401678 32.07798 13.198321 32.07798 13.04 32.18C 12.868178 32.258747 12.758564 32.430996 12.76 32.619999L 12.76 36C 12.76 39.540001 18.220001 42.540001 25.799999 43.599998C 25.93487 43.617645 26.071287 43.581749 26.179998 43.499996C 26.281258 43.413841 26.345671 43.292175 26.359999 43.159996C 26.588804 41.192818 27.185865 39.286293 28.119999 37.540001C 28.20182 37.390461 28.20182 37.209541 28.120001 37.059998C 28.032097 36.91803 27.885427 36.822697 27.719999 36.799999C 22 36.299999 16.700001 34.720001 13.559999 32.18ZM 42.240002 29C 44.421215 29.003246 46.578735 29.452446 48.580002 30.32C 48.763836 30.39735 48.976055 30.358049 49.119999 30.219999C 50.090599 29.421379 50.684822 28.254673 50.760002 27L 50.759998 23.560001C 50.752922 23.367851 50.636284 23.196781 50.459999 23.119999C 50.300301 23.022778 50.099701 23.022778 49.939999 23.119999C 46 26.34 38.760002 28 31.76 28C 24.76 28 17.440001 26.34 13.559999 23.18C 13.401678 23.07798 13.198321 23.07798 13.04 23.18C 12.868178 23.258747 12.758564 23.430996 12.76 23.619999L 12.76 27C 12.76 31.1 20.1 34.48 29.559999 35C 29.715868 35.015472 29.86821 34.946922 29.959999 34.82C 32.98521 31.151712 37.485229 29.018969 42.240002 29ZM 12.76 18C 12.76 22.418278 21.26659 26 31.76 26C 42.25341 26 50.759998 22.418278 50.759998 18C 50.759998 13.581722 42.25341 10 31.76 10C 21.26659 10 12.76 13.581722 12.76 18M 42.240002 32C 35.060299 32 29.240002 37.820297 29.240002 45C 29.240002 52.179703 35.060303 58 42.240002 58C 49.419704 58 55.240002 52.179703 55.240002 45C 55.228989 37.824867 49.415134 32.011013 42.240002 32ZM 48.799999 42.419998L 42.98 50.16C 42.466522 50.859737 41.666634 51.292706 40.800003 51.340004L 40.580002 51.34C 39.784622 51.339302 39.022072 51.02277 38.459999 50.460003L 35.459999 47.459999C 34.875092 46.874367 34.875092 45.925636 35.459999 45.34C 35.738579 45.054104 36.120827 44.89286 36.52 44.89286C 36.919174 44.89286 37.301426 45.054104 37.580002 45.34L 40.18 47.939999C 40.282539 48.036095 40.419617 48.086597 40.559998 48.079998C 40.70887 48.068729 40.846428 47.99633 40.940002 47.880001L 46.400002 40.599998C 46.902668 39.937546 47.847126 39.807884 48.509727 40.310356C 49.172329 40.812828 49.302277 41.757248 48.799999 42.419998Z"></path></g></g></g><g id="g-root-ic_full_4mbkpq1fuux6-fill" data-item-order="-2304" transform="translate(512, 680)"><g id="ic_full_4mbkpq1fuux6-fill" stroke="none" fill="#3cc583"><g><path d="M 56 14.26L 50.799999 14.26C 49.409199 14.251316 48.197346 15.20586 47.880001 16.560001L 45.639999 25.860001C 45.584919 26.092304 45.378727 26.257257 45.139999 26.259998L 12.18 26.26C 11.539892 26.258339 10.937663 26.563171 10.56 27.08C 10.182977 27.600201 10.078809 28.269854 10.28 28.879999L 15.62 44.880001C 15.888195 45.702526 16.654852 46.259361 17.52 46.259998L 40.200001 46.259998C 40.353939 46.255192 40.501503 46.321598 40.599998 46.439999C 40.65905 46.573769 40.65905 46.726227 40.599998 46.859997L 40.379997 47.860001C 40.324921 48.092304 40.118729 48.257256 39.879997 48.259998L 19.84 48.259998C 17.368483 48.314938 15.404066 50.353329 15.440489 52.825188C 15.476912 55.297047 17.500532 57.276676 19.972595 57.25877C 22.444658 57.240864 24.439388 55.232128 24.440001 52.760002C 24.441818 52.623161 24.499647 52.493046 24.6 52.400002C 24.687468 52.305946 24.811665 52.254807 24.939999 52.259998L 36.940002 52.259998C 37.216141 52.259998 37.440002 52.483856 37.440002 52.759998C 37.447453 54.883499 38.938354 56.712784 41.016685 57.148472C 43.09502 57.584164 45.195076 56.507664 46.054737 54.565945C 46.914398 52.624222 46.299671 50.345806 44.580002 49.099998C 44.414764 48.992477 44.341213 48.78817 44.399998 48.599998L 51.439999 18.6C 51.522827 18.368544 51.756428 18.226715 51.999996 18.259998L 56 18.26C 57.104568 18.26 58 17.364571 58 16.26C 58 15.15543 57.104568 14.26 56 14.26ZM 29.6 24.26L 40.18 24.26C 40.951988 24.269239 41.660355 23.833321 42 23.139999C 42.343639 22.462612 42.273907 21.649027 41.82 21.040001L 37.860001 16L 37.68 15.780001C 36.414936 14.516068 34.365063 14.516068 33.099998 15.78L 28.16 20.860001C 27.594784 21.436607 27.431725 22.296524 27.746616 23.04002C 28.06151 23.78352 28.792582 24.264744 29.6 24.26ZM 12.8 23.060001C 13.119106 23.791178 13.842227 24.262779 14.639999 24.26L 23.26 24.26C 23.932869 24.252121 24.556671 23.906399 24.92 23.34C 25.32806 22.750238 25.389109 21.987135 25.08 21.34L 21.08 12.5C 20.691643 11.665774 19.962959 11.039105 19.08 10.78C 18.248634 10.578937 17.372261 10.692936 16.620001 11.1L 12 13.22C 10.369329 13.97385 9.627067 15.882525 10.32 17.539999Z"></path></g></g></g><g id="g-root-ic_1_1lz9zmm1ga96u-fill" data-item-order="-2304" transform="translate(872, 248)"><g id="ic_1_1lz9zmm1ga96u-fill" stroke="none" fill="#de8431"><g><path d="M 28.780001 35.400002C 27.450445 35.400009 26.175636 34.870483 25.237377 33.928471C 24.299118 32.986458 23.774681 31.709545 23.779999 30.380001L 23.779999 21.16C 23.405977 19.781906 22.072788 18.89085 20.656416 19.072306C 19.240046 19.253761 18.174538 20.452126 18.16 21.880001L 18 31.34L 20.639999 36.18C 25.619999 37.66 25.619999 41.580002 25.619999 44.48C 25.621555 45.046574 25.185019 45.518036 24.619999 45.560001C 24.363913 45.576427 24.112244 45.487446 23.923393 45.313702C 23.734543 45.139961 23.624933 44.896564 23.619999 44.639999C 23.619999 41.52 23.619999 39 19.619999 37.98C 19.353283 37.917946 19.126884 37.742668 19 37.5L 15 30.16C 14.033195 29.280813 12.604257 29.139645 11.484106 29.812656C 10.363956 30.48567 9.817681 31.813591 10.14 33.080002C 11.72 38.120003 15.24 48.880001 17.08 51.779999C 18.824055 54.515202 21.83614 56.179382 25.08 56.200001L 31.440001 56.200001C 36.700996 56.200012 40.968971 51.940983 40.98 46.68L 40.98 35.400002ZM 56 11.8L 28.74 11.8C 27.635431 11.8 26.74 12.695431 26.74 13.8L 26.74 30.379999C 26.74 31.48457 27.635431 32.379997 28.74 32.379997L 56 32.379997C 57.104568 32.379997 58 31.48457 58 30.379999L 58 13.8C 58 12.695431 57.104568 11.8 56 11.8ZM 42.360001 15.559999C 43.779228 15.551913 45.062836 16.401682 45.609695 17.711344C 46.156551 19.021008 45.858379 20.531258 44.854816 21.534817C 43.851257 22.538378 42.341007 22.836548 41.031345 22.289692C 39.721684 21.742836 38.871914 20.459225 38.880001 19.040001C 38.879997 17.11805 40.438049 15.559999 42.360001 15.559999ZM 50.799999 28.82L 34 28.82C 33.171574 28.82 32.5 28.148428 32.5 27.32C 32.5 26.491573 33.171574 25.82 34 25.82L 50.799999 25.82C 51.628429 25.82 52.300003 26.491573 52.300003 27.32C 52.300003 28.148428 51.628429 28.82 50.800003 28.82Z"></path></g></g></g><g id="g-root-ic_paym_93e10e1fz0gb-fill" data-item-order="-2304" transform="translate(602, 572)"><g id="ic_paym_93e10e1fz0gb-fill" stroke="none" fill="#92bd39"><g><path d="M 17.860001 21.200001C 18.964569 21.200001 19.860001 20.304569 19.860001 19.200001L 19.860001 16.1C 19.835461 15.945553 19.887701 15.788835 20 15.68C 20.154701 15.590683 20.345299 15.590683 20.5 15.68L 20.860001 15.860001C 21.500084 16.180891 22.262878 16.135124 22.860001 15.74L 24.42 14.68C 24.593266 14.579966 24.806736 14.579966 24.98 14.68L 26.559999 15.74C 27.157122 16.135124 27.919916 16.180891 28.559999 15.860001L 28.92 15.68C 29.067316 15.589905 29.252684 15.589905 29.4 15.68C 29.549852 15.766508 29.641548 15.926975 29.639999 16.099998L 29.639999 19.24C 29.639999 20.34457 30.535431 21.24 31.639999 21.24C 32.744568 21.24 33.639999 20.34457 33.639999 19.24L 33.639999 13.7C 33.660484 12.645688 33.114746 11.661155 32.209785 11.119829C 31.304819 10.578504 30.179251 10.563306 29.26 11.08L 28 11.7C 27.845299 11.789316 27.654701 11.789316 27.5 11.7L 26.32 10.86C 25.340702 10.200437 24.059299 10.200437 23.080002 10.86L 21.860001 11.66C 21.705299 11.749316 21.514702 11.749316 21.360001 11.66L 20.139999 11.08C 19.240692 10.67764 18.199627 10.752479 17.367115 11.279334C 16.534603 11.806189 16.021328 12.715015 16 13.7L 16 19.24C 16.018206 20.276699 16.825672 21.127579 17.860001 21.200001ZM 55 14.58L 47.720001 14.58C 47.443859 14.58 47.220001 14.803858 47.220001 15.08L 47.220001 35.599998C 47.220001 35.876144 47.443859 36.099998 47.720001 36.099998L 55 36.099998C 56.104568 36.099998 57 35.204567 57 34.099998L 57 16.58C 57 15.47543 56.104568 14.58 55 14.58ZM 54 21.42C 54 21.972284 53.552284 22.42 53 22.42C 52.447716 22.42 52 21.972284 52 21.42L 52 18.48C 52 17.927715 52.447716 17.48 53 17.48C 53.552284 17.48 54 17.927715 54 18.48ZM 45.259998 15.08C 45.259998 14.803858 45.036144 14.58 44.759998 14.58L 43.34 14.58C 42.235432 14.58 41.34 15.47543 41.34 16.58L 41.34 34.099998C 41.34 35.204567 42.235432 36.099998 43.34 36.099998L 44.759998 36.099998C 45.036144 36.099998 45.259998 35.876144 45.259998 35.599998ZM 53.080002 48.82L 51.619999 48.82C 51.343857 48.82 51.119999 48.596142 51.119999 48.32L 51.119999 42C 51.302742 41.198158 50.976009 40.366192 50.296463 39.902992C 49.616913 39.439789 48.723087 39.439789 48.043537 39.902992C 47.363991 40.366192 47.037258 41.198158 47.220001 42L 47.220001 48.34C 47.220001 48.616142 46.996143 48.84 46.720001 48.84L 45.259998 48.84C 44.868385 48.852818 44.52034 49.093166 44.369637 49.454849C 44.218937 49.816532 44.29335 50.232906 44.560001 50.52L 48.560001 54.52C 48.747868 54.701084 48.999073 54.801567 49.259998 54.799999C 49.51442 54.798473 49.758274 54.698063 49.939999 54.52L 53.939999 50.52C 54.20665 50.232906 54.281063 49.816532 54.130363 49.454849C 53.97966 49.093166 53.631615 48.852818 53.240002 48.84ZM 32.540001 22.66L 16.880001 22.66C 13.632565 22.66 11 25.292566 11 28.540001L 11 51.759998C 10.921631 54.922871 13.417358 57.55278 16.58 57.639999L 32.84 57.639999C 35.994751 57.542 38.478504 54.915295 38.400002 51.759998L 38.400002 28.540001C 38.400017 25.300362 35.779621 22.671021 32.540001 22.66ZM 33.52 50.66L 31.52 50.66C 30.953878 50.726147 30.40008 50.461319 30.096174 49.979126C 29.792269 49.496933 29.792269 48.883072 30.096174 48.400875C 30.40008 47.918682 30.953878 47.653854 31.52 47.720001L 33.52 47.720001C 34.265862 47.807148 34.828247 48.439064 34.828247 49.190002C 34.828247 49.940937 34.265862 50.572853 33.52 50.66ZM 25.68 43.700001L 23.68 43.700001C 22.873665 43.700001 22.220001 43.046337 22.220001 42.240002C 22.220001 41.433666 22.873665 40.779999 23.68 40.779999L 25.68 40.779999C 26.486336 40.779999 27.140001 41.433666 27.140001 42.240002C 27.140001 43.046337 26.486336 43.700001 25.68 43.700001ZM 27.139999 49.099998C 27.140001 49.906338 26.486336 50.560001 25.68 50.560001L 23.68 50.560001C 22.934137 50.472855 22.371756 49.840939 22.371756 49.09C 22.371756 48.339066 22.934137 47.70715 23.68 47.620003L 25.68 47.619999C 26.070707 47.619965 26.445127 47.776527 26.719513 48.054672C 26.993898 48.332817 27.145353 48.709332 27.140001 49.100002ZM 16 40.779999L 18 40.779999C 18.806335 40.779999 19.459999 41.433666 19.459999 42.240002C 19.459999 43.046337 18.806335 43.700001 18 43.700001L 16 43.700001C 15.193665 43.700001 14.540001 43.046337 14.540001 42.240002C 14.540001 41.433666 15.193665 40.779999 16 40.779999ZM 16 47.619999L 18 47.619999C 18.745863 47.70715 19.308245 48.339066 19.308245 49.09C 19.308245 49.840939 18.745863 50.472855 18 50.560001L 16 50.560001C 15.433878 50.626148 14.880079 50.36132 14.576174 49.879128C 14.272268 49.396935 14.272268 48.78307 14.576174 48.300877C 14.880079 47.818684 15.433878 47.553856 16 47.620003ZM 33.620003 43.619999L 31.620001 43.619999C 30.813665 43.620003 30.160002 42.966335 30.160002 42.16C 30.160002 41.353668 30.813665 40.700001 31.620001 40.700001L 33.620003 40.700001C 34.426338 40.700001 35.080002 41.353668 35.080002 42.16C 35.080002 42.966335 34.426338 43.620003 33.620003 43.620003ZM 14.92 28.540001C 14.92 27.435431 15.815431 26.540001 16.92 26.540001L 32.580002 26.540001C 33.68457 26.540001 34.580002 27.435431 34.580002 28.540001L 34.580002 32.419998C 34.580002 33.524567 33.68457 34.419998 32.580002 34.419998L 16.92 34.419998C 15.815431 34.419998 14.92 33.524567 14.92 32.419998Z"></path></g></g></g><g id="g-root-ic_off_146r0ym1g7imd-fill" data-item-order="-2304" transform="translate(782, 356)"><g id="ic_off_146r0ym1g7imd-fill" stroke="none" fill="#e0cb15"><g><path d="M 38.48 52L 29.540001 52C 29.285686 51.998161 29.070511 52.187519 29.040001 52.439999C 29.030094 52.626537 29.030094 52.813465 29.040001 53C 29.040001 55.761425 31.278576 58 34.040001 58C 36.801422 58 39.040001 55.761425 39.040001 53C 39.04998 52.813465 39.04998 52.62653 39.040001 52.439999C 38.998817 52.168461 38.753571 51.975765 38.479996 51.999996ZM 28.26 47L 52 47C 52.351048 47.002045 52.67746 46.819862 52.860001 46.52C 53.031487 46.222973 53.031487 45.857021 52.859997 45.559998C 50.569553 41.004719 49.37125 35.978687 49.360001 30.880001L 49.360001 29.360001C 49.366772 28.280304 49.273033 27.20232 49.079998 26.139999ZM 12 58C 12.528754 58.008404 13.039316 57.807056 13.42 57.439999L 57.419998 13.440001C 57.798626 13.064466 58.011597 12.553275 58.011597 12.02C 58.011597 11.486725 57.798626 10.975533 57.419998 10.6C 56.639927 9.824553 55.380074 9.824553 54.599998 10.6L 45.360001 19.82C 44.193733 18.834339 42.964462 17.925747 41.68 17.1C 40.254745 16.191702 38.664436 15.573248 37 15.28L 37 13C 37 11.343145 35.656853 10 34 10C 32.343147 10 31 11.343145 31 13L 31 15.3C 28.92684 15.698672 26.975182 16.575207 25.299999 17.860001C 21.560001 20.779999 18.6 23.1 18.6 29.360001L 18.6 33.879997C 18.627316 37.780643 17.530228 41.60656 15.44 44.899998L 15.12 45.560001C 14.948512 45.857021 14.948512 46.222973 15.12 46.519997C 15.303122 46.829266 15.640841 47.013474 16 47L 18.18 47L 10.6 54.580002C 9.984221 55.189407 9.830814 56.125988 10.22 56.900002C 10.558901 57.572559 11.246883 57.997719 12 58Z"></path></g></g></g><g id="g-root-ic_chec_quo1i61g4o3w-fill" data-item-order="-2304" transform="translate(692, 464)"><g id="ic_chec_quo1i61g4o3w-fill" stroke="none" fill="#1eabda"><g><path d="M 40.27 14.344C 41.052589 13.592893 41.078106 12.349587 40.327 11.567C 39.57589 10.784412 38.332588 10.758893 37.549999 11.51L 33.98 14.936L 32.393997 13.456C 31.597218 12.748856 30.381954 12.805864 29.654871 13.584496C 28.927788 14.363126 28.954021 15.579443 29.714001 16.326L 32.66 19.076C 33.422607 19.787134 34.608009 19.778355 35.360001 19.056L 40.27 14.344ZM 23.470001 22.507999C 22.386093 22.509104 21.507999 23.388094 21.507999 24.472L 21.507999 55.071999C 21.507999 56.158001 22.388 57.035999 23.472 57.035999L 44.528 57.035999C 45.613998 57.035999 46.492001 56.155998 46.492001 55.074001L 46.492001 24.472C 46.492001 23.387314 45.61269 22.507999 44.528 22.507999L 23.472 22.507999ZM 42.563999 43.164001L 42.563999 36.571999L 25.434 36.571999L 25.434 43.164001L 42.566002 43.164001ZM 25.434 47.091999L 42.566002 47.091999L 42.566002 53.110001L 25.431999 53.110001L 25.431999 47.09ZM 42.566002 26.436001L 42.566002 32.643997L 25.431999 32.643997L 25.431999 26.436001L 42.563999 26.436001ZM 51.216 33.506001C 50.131313 33.506001 49.252003 34.385315 49.252003 35.470001C 49.252003 36.554688 50.131313 37.433998 51.216 37.433998L 53.571999 37.433998L 53.571999 41.362L 51.216 41.362C 50.499748 41.339134 49.827896 41.708199 49.463005 42.324963C 49.098114 42.941727 49.098114 43.708275 49.463005 44.325039C 49.827896 44.941799 50.499748 45.310867 51.216 45.288002L 53.571999 45.287998L 53.571999 49.216L 51.216 49.216C 50.131313 49.216 49.252003 50.095314 49.252003 51.18C 49.252003 52.26469 50.131313 53.144001 51.216 53.144001L 53.571999 53.144001C 54.608002 53.144001 55.624001 52.790001 56.383999 52.028C 57.146 51.268002 57.5 50.251999 57.5 49.216L 57.5 29.58C 57.5 28.544001 57.146 27.530001 56.383999 26.768C 55.624001 26.007999 54.608002 25.652 53.571999 25.652L 51.216 25.652C 50.131313 25.652 49.252003 26.531313 49.252003 27.616001C 49.252003 28.700687 50.131313 29.58 51.216 29.58L 53.571999 29.58L 53.571999 33.507999L 51.216 33.507999ZM 10.5 29.577999L 10.5 49.216C 10.5 50.251999 10.854 51.268002 11.616 52.028C 12.375999 52.790001 13.392 53.144001 14.427999 53.144001L 16.784 53.144001C 17.868687 53.144001 18.748001 52.26469 18.748001 51.18C 18.748001 50.095314 17.868687 49.216 16.784 49.216L 14.427999 49.216L 14.427999 45.287998L 16.784 45.287998C 17.500254 45.310867 18.172106 44.941799 18.536995 44.325039C 18.901886 43.708275 18.901886 42.941727 18.536995 42.324963C 18.172106 41.708199 17.500254 41.339134 16.784 41.362L 14.427999 41.362L 14.427999 37.433998L 16.784 37.433998C 17.868687 37.433998 18.748001 36.554688 18.748001 35.470001C 18.748001 34.385315 17.868687 33.506001 16.784 33.506001L 14.427999 33.506001L 14.427999 29.577999L 16.784 29.577999C 17.868687 29.578001 18.748001 28.698689 18.748001 27.614C 18.748001 26.529314 17.868687 25.650002 16.784 25.650002L 14.427999 25.65C 13.392 25.65 12.375999 26.004 11.616 26.766001C 10.854 27.525999 10.5 28.542 10.5 29.577999Z"></path></g></g></g><g id="g-root-tx__zqxlzy1fz0n5-fill" data-item-order="0" transform="translate(368, 434)"><g id="tx__zqxlzy1fz0n5-fill" stroke="none" fill="#1eabda"><g><text style="font-style: normal; font-variant-caps: normal; font-weight: bold; font-stretch: normal; font-size: 20px; line-height: normal; font-family: Roboto, sans-serif; font-size-adjust: none; font-kerning: auto; font-variant-alternates: normal; font-variant-ligatures: normal; font-variant-numeric: normal; font-variant-east-asian: normal; font-variant-position: normal; font-variant-emoji: normal; font-feature-settings: normal; font-optical-sizing: auto; font-variation-settings: normal; white-space: pre;"><tspan x="12" y="34" dominant-baseline="ideographic">Обработка заказа</tspan></text></g></g></g><g id="g-root-tx__14802am1fz20y-fill" data-item-order="0" transform="translate(368, 470)"><g id="tx__14802am1fz20y-fill" stroke="none" fill="#32444a"><g><text style="font-style: normal; font-variant-caps: normal; font-weight: normal; font-stretch: normal; font-size: 15px; line-height: normal; font-family: Roboto, sans-serif; font-size-adjust: none; font-kerning: auto; font-variant-alternates: normal; font-variant-ligatures: normal; font-variant-numeric: normal; font-variant-east-asian: normal; font-variant-position: normal; font-variant-emoji: normal; font-feature-settings: normal; font-optical-sizing: auto; font-variation-settings: normal; white-space: pre;"><tspan x="12" y="28" dominant-baseline="ideographic">Серверное приложение </tspan><tspan x="12" y="46" dominant-baseline="ideographic">обрабатывает запрос и </tspan><tspan x="12" y="64" dominant-baseline="ideographic">взаимодействует с базой </tspan><tspan x="12" y="82" dominant-baseline="ideographic">данных.</tspan></text></g></g></g><g id="g-root-tx_4_m8lvoe1g0h6z-fill" data-item-order="0" transform="translate(296, 434)"><g id="tx_4_m8lvoe1g0h6z-fill" stroke="none" fill="#1eabda"><g><text style="font-style: normal; font-variant-caps: normal; font-weight: bold; font-stretch: normal; font-size: 30px; line-height: normal; font-family: Roboto, sans-serif; font-size-adjust: none; font-kerning: auto; font-variant-alternates: normal; font-variant-ligatures: normal; font-variant-numeric: normal; font-variant-east-asian: normal; font-variant-position: normal; font-variant-emoji: normal; font-feature-settings: normal; font-optical-sizing: auto; font-variation-settings: normal; white-space: pre;"><tspan x="13.39" y="45" dominant-baseline="ideographic">4</tspan></text></g></g></g><g id="g-root-tx__14309lq1g0g05-fill" data-item-order="0" transform="translate(458, 392)"><g id="tx__14309lq1g0g05-fill" stroke="none" fill="#46432d"><g><text style="font-style: normal; font-variant-caps: normal; font-weight: normal; font-stretch: normal; font-size: 15px; line-height: normal; font-family: Roboto, sans-serif; font-size-adjust: none; font-kerning: auto; font-variant-alternates: normal; font-variant-ligatures: normal; font-variant-numeric: normal; font-variant-east-asian: normal; font-variant-position: normal; font-variant-emoji: normal; font-feature-settings: normal; font-optical-sizing: auto; font-variation-settings: normal; white-space: pre;"><tspan x="12" y="28" dominant-baseline="ideographic">Пользователь получает </tspan><tspan x="12" y="46" dominant-baseline="ideographic">уведомление о статусе заказа.</tspan></text></g></g></g><g id="g-root-tx_3_ddlcim1fz1fx-fill" data-item-order="0" transform="translate(206, 560)"><g id="tx_3_ddlcim1fz1fx-fill" stroke="none" fill="#92bd39"><g><text style="font-style: normal; font-variant-caps: normal; font-weight: bold; font-stretch: normal; font-size: 30px; line-height: normal; font-family: Roboto, sans-serif; font-size-adjust: none; font-kerning: auto; font-variant-alternates: normal; font-variant-ligatures: normal; font-variant-numeric: normal; font-variant-east-asian: normal; font-variant-position: normal; font-variant-emoji: normal; font-feature-settings: normal; font-optical-sizing: auto; font-variation-settings: normal; white-space: pre;"><tspan x="13.39" y="45" dominant-baseline="ideographic">3</tspan></text></g></g></g><g id="g-root-tx__zlbc7y1g0hs4-fill" data-item-order="0" transform="translate(458, 332)"><g id="tx__zlbc7y1g0hs4-fill" stroke="none" fill="#e0cb15"><g><text style="font-style: normal; font-variant-caps: normal; font-weight: bold; font-stretch: normal; font-size: 20px; line-height: normal; font-family: Roboto, sans-serif; font-size-adjust: none; font-kerning: auto; font-variant-alternates: normal; font-variant-ligatures: normal; font-variant-numeric: normal; font-variant-east-asian: normal; font-variant-position: normal; font-variant-emoji: normal; font-feature-settings: normal; font-optical-sizing: auto; font-variation-settings: normal; white-space: pre;"><tspan x="12" y="34" dominant-baseline="ideographic">Уведомление </tspan><tspan x="12" y="58" dominant-baseline="ideographic">пользователя</tspan></text></g></g></g><g id="g-root-tx__hznli61fxouj-fill" data-item-order="0" transform="translate(278, 560)"><g id="tx__hznli61fxouj-fill" stroke="none" fill="#92bd39"><g><text style="font-style: normal; font-variant-caps: normal; font-weight: bold; font-stretch: normal; font-size: 20px; line-height: normal; font-family: Roboto, sans-serif; font-size-adjust: none; font-kerning: auto; font-variant-alternates: normal; font-variant-ligatures: normal; font-variant-numeric: normal; font-variant-east-asian: normal; font-variant-position: normal; font-variant-emoji: normal; font-feature-settings: normal; font-optical-sizing: auto; font-variation-settings: normal; white-space: pre;"><tspan x="12" y="34" dominant-baseline="ideographic">Оформление заказа</tspan></text></g></g></g><g id="g-root-tx_5_v98om61g0ft2-fill" data-item-order="0" transform="translate(386, 332)"><g id="tx_5_v98om61g0ft2-fill" stroke="none" fill="#e0cb15"><g><text style="font-style: normal; font-variant-caps: normal; font-weight: bold; font-stretch: normal; font-size: 30px; line-height: normal; font-family: Roboto, sans-serif; font-size-adjust: none; font-kerning: auto; font-variant-alternates: normal; font-variant-ligatures: normal; font-variant-numeric: normal; font-variant-east-asian: normal; font-variant-position: normal; font-variant-emoji: normal; font-feature-settings: normal; font-optical-sizing: auto; font-variation-settings: normal; white-space: pre;"><tspan x="13.39" y="45" dominant-baseline="ideographic">5</tspan></text></g></g></g><g id="g-root-tx__v2zxr21fz0uc-fill" data-item-order="0" transform="translate(278, 596)"><g id="tx__v2zxr21fz0uc-fill" stroke="none" fill="#424736"><g><text style="font-style: normal; font-variant-caps: normal; font-weight: normal; font-stretch: normal; font-size: 15px; line-height: normal; font-family: Roboto, sans-serif; font-size-adjust: none; font-kerning: auto; font-variant-alternates: normal; font-variant-ligatures: normal; font-variant-numeric: normal; font-variant-east-asian: normal; font-variant-position: normal; font-variant-emoji: normal; font-feature-settings: normal; font-optical-sizing: auto; font-variation-settings: normal; white-space: pre;"><tspan x="12" y="28" dominant-baseline="ideographic">Пользователь оформляет заказ </tspan><tspan x="12" y="46" dominant-baseline="ideographic">и выбирает способ доставки.</tspan></text></g></g></g><g id="g-root-tx_2_dil57i1fxngq-fill" data-item-order="0" transform="translate(116, 656)"><g id="tx_2_dil57i1fxngq-fill" stroke="none" fill="#3cc583"><g><text style="font-style: normal; font-variant-caps: normal; font-weight: bold; font-stretch: normal; font-size: 30px; line-height: normal; font-family: Roboto, sans-serif; font-size-adjust: none; font-kerning: auto; font-variant-alternates: normal; font-variant-ligatures: normal; font-variant-numeric: normal; font-variant-east-asian: normal; font-variant-position: normal; font-variant-emoji: normal; font-feature-settings: normal; font-optical-sizing: auto; font-variation-settings: normal; white-space: pre;"><tspan x="13.39" y="45" dominant-baseline="ideographic">2</tspan></text></g></g></g><g id="g-root-tx__v64b6m1fxnuw-fill" data-item-order="0" transform="translate(188, 656)"><g id="tx__v64b6m1fxnuw-fill" stroke="none" fill="#3cc583"><g><text style="font-style: normal; font-variant-caps: normal; font-weight: bold; font-stretch: normal; font-size: 20px; line-height: normal; font-family: Roboto, sans-serif; font-size-adjust: none; font-kerning: auto; font-variant-alternates: normal; font-variant-ligatures: normal; font-variant-numeric: normal; font-variant-east-asian: normal; font-variant-position: normal; font-variant-emoji: normal; font-feature-settings: normal; font-optical-sizing: auto; font-variation-settings: normal; white-space: pre;"><tspan x="12" y="34" dominant-baseline="ideographic">Выбор товара</tspan></text></g></g></g><g id="g-root-tx__1464n1a1g0gen-fill" data-item-order="0" transform="translate(548, 236)"><g id="tx__1464n1a1g0gen-fill" stroke="none" fill="#de8431"><g><text style="font-style: normal; font-variant-caps: normal; font-weight: bold; font-stretch: normal; font-size: 20px; line-height: normal; font-family: Roboto, sans-serif; font-size-adjust: none; font-kerning: auto; font-variant-alternates: normal; font-variant-ligatures: normal; font-variant-numeric: normal; font-variant-east-asian: normal; font-variant-position: normal; font-variant-emoji: normal; font-feature-settings: normal; font-optical-sizing: auto; font-variation-settings: normal; white-space: pre;"><tspan x="12" y="34" dominant-baseline="ideographic">Обработка платежа</tspan></text></g></g></g><g id="g-root-tx__znt8ke1fxm2x-fill" data-item-order="0" transform="translate(188, 692)"><g id="tx__znt8ke1fxm2x-fill" stroke="none" fill="#374840"><g><text style="font-style: normal; font-variant-caps: normal; font-weight: normal; font-stretch: normal; font-size: 15px; line-height: normal; font-family: Roboto, sans-serif; font-size-adjust: none; font-kerning: auto; font-variant-alternates: normal; font-variant-ligatures: normal; font-variant-numeric: normal; font-variant-east-asian: normal; font-variant-position: normal; font-variant-emoji: normal; font-feature-settings: normal; font-optical-sizing: auto; font-variation-settings: normal; white-space: pre;"><tspan x="12" y="31" dominant-baseline="ideographic">Пользователь выбирает товары </tspan><tspan x="12" y="49" dominant-baseline="ideographic">из меню и добавляет их в </tspan><tspan x="12" y="67" dominant-baseline="ideographic">корзину.</tspan></text></g></g></g><g id="g-root-tx_6_18f2x7i1g1vd5-fill" data-item-order="0" transform="translate(476, 236)"><g id="tx_6_18f2x7i1g1vd5-fill" stroke="none" fill="#de8431"><g><text style="font-style: normal; font-variant-caps: normal; font-weight: bold; font-stretch: normal; font-size: 30px; line-height: normal; font-family: Roboto, sans-serif; font-size-adjust: none; font-kerning: auto; font-variant-alternates: normal; font-variant-ligatures: normal; font-variant-numeric: normal; font-variant-east-asian: normal; font-variant-position: normal; font-variant-emoji: normal; font-feature-settings: normal; font-optical-sizing: auto; font-variation-settings: normal; white-space: pre;"><tspan x="13.39" y="45" dominant-baseline="ideographic">6</tspan></text></g></g></g><g id="g-root-tx__1q9hb4u1g1u6b-fill" data-item-order="0" transform="translate(638, 176)"><g id="tx__1q9hb4u1g1u6b-fill" stroke="none" fill="#543a3a"><g><text style="font-style: normal; font-variant-caps: normal; font-weight: normal; font-stretch: normal; font-size: 15px; line-height: normal; font-family: Roboto, sans-serif; font-size-adjust: none; font-kerning: auto; font-variant-alternates: normal; font-variant-ligatures: normal; font-variant-numeric: normal; font-variant-east-asian: normal; font-variant-position: normal; font-variant-emoji: normal; font-feature-settings: normal; font-optical-sizing: auto; font-variation-settings: normal; white-space: pre;"><tspan x="12" y="28" dominant-baseline="ideographic">База данных обновляет </tspan><tspan x="12" y="46" dominant-baseline="ideographic">транзакцию и статус заказа.</tspan></text></g></g></g><g id="g-root-tx_1_mdloda1fz37s-fill" data-item-order="0" transform="translate(26, 782)"><g id="tx_1_mdloda1fz37s-fill" stroke="none" fill="#4e88e7"><g><text style="font-style: normal; font-variant-caps: normal; font-weight: bold; font-stretch: normal; font-size: 30px; line-height: normal; font-family: Roboto, sans-serif; font-size-adjust: none; font-kerning: auto; font-variant-alternates: normal; font-variant-ligatures: normal; font-variant-numeric: normal; font-variant-east-asian: normal; font-variant-position: normal; font-variant-emoji: normal; font-feature-settings: normal; font-optical-sizing: auto; font-variation-settings: normal; white-space: pre;"><tspan x="13.39" y="45" dominant-baseline="ideographic">1</tspan></text></g></g></g><g id="g-root-tx__v7d9cu1fz3ev-fill" data-item-order="0" transform="translate(98, 842)"><g id="tx__v7d9cu1fz3ev-fill" stroke="none" fill="#3a4455"><g><text style="font-style: normal; font-variant-caps: normal; font-weight: normal; font-stretch: normal; font-size: 15px; line-height: normal; font-family: Roboto, sans-serif; font-size-adjust: none; font-kerning: auto; font-variant-alternates: normal; font-variant-ligatures: normal; font-variant-numeric: normal; font-variant-east-asian: normal; font-variant-position: normal; font-variant-emoji: normal; font-feature-settings: normal; font-optical-sizing: auto; font-variation-settings: normal; white-space: pre;"><tspan x="12" y="28" dominant-baseline="ideographic">Пользователь создает учетную </tspan><tspan x="12" y="46" dominant-baseline="ideographic">запись в приложении.</tspan></text></g></g></g><g id="g-root-tx__qqat261fz212-fill" data-item-order="0" transform="translate(98, 782)"><g id="tx__qqat261fz212-fill" stroke="none" fill="#4e88e7"><g><text style="font-style: normal; font-variant-caps: normal; font-weight: bold; font-stretch: normal; font-size: 20px; line-height: normal; font-family: Roboto, sans-serif; font-size-adjust: none; font-kerning: auto; font-variant-alternates: normal; font-variant-ligatures: normal; font-variant-numeric: normal; font-variant-east-asian: normal; font-variant-position: normal; font-variant-emoji: normal; font-feature-settings: normal; font-optical-sizing: auto; font-variation-settings: normal; white-space: pre;"><tspan x="12" y="34" dominant-baseline="ideographic">Регистрация </tspan><tspan x="12" y="58" dominant-baseline="ideographic">пользователя</tspan></text></g></g></g><g id="g-root-tx__1lrsdr21g1vya-fill" data-item-order="0" transform="translate(638, 116)"><g id="tx__1lrsdr21g1vya-fill" stroke="none" fill="#e55753"><g><text style="font-style: normal; font-variant-caps: normal; font-weight: bold; font-stretch: normal; font-size: 20px; line-height: normal; font-family: Roboto, sans-serif; font-size-adjust: none; font-kerning: auto; font-variant-alternates: normal; font-variant-ligatures: normal; font-variant-numeric: normal; font-variant-east-asian: normal; font-variant-position: normal; font-variant-emoji: normal; font-feature-settings: normal; font-optical-sizing: auto; font-variation-settings: normal; white-space: pre;"><tspan x="12" y="34" dominant-baseline="ideographic">Обновление базы </tspan><tspan x="12" y="58" dominant-baseline="ideographic">данных</tspan></text></g></g></g><g id="g-root-tx_7_18k2pwe1g1urw-fill" data-item-order="0" transform="translate(566, 116)"><g id="tx_7_18k2pwe1g1urw-fill" stroke="none" fill="#e55753"><g><text style="font-style: normal; font-variant-caps: normal; font-weight: bold; font-stretch: normal; font-size: 30px; line-height: normal; font-family: Roboto, sans-serif; font-size-adjust: none; font-kerning: auto; font-variant-alternates: normal; font-variant-ligatures: normal; font-variant-numeric: normal; font-variant-east-asian: normal; font-variant-position: normal; font-variant-emoji: normal; font-feature-settings: normal; font-optical-sizing: auto; font-variation-settings: normal; white-space: pre;"><tspan x="13.39" y="45" dominant-baseline="ideographic">7</tspan></text></g></g></g><g id="g-root-tx__1d30lge1g0hs0-fill" data-item-order="0" transform="translate(548, 272)"><g id="tx__1d30lge1g0hs0-fill" stroke="none" fill="#4c4034"><g><text style="font-style: normal; font-variant-caps: normal; font-weight: normal; font-stretch: normal; font-size: 15px; line-height: normal; font-family: Roboto, sans-serif; font-size-adjust: none; font-kerning: auto; font-variant-alternates: normal; font-variant-ligatures: normal; font-variant-numeric: normal; font-variant-east-asian: normal; font-variant-position: normal; font-variant-emoji: normal; font-feature-settings: normal; font-optical-sizing: auto; font-variation-settings: normal; white-space: pre;"><tspan x="12" y="28" dominant-baseline="ideographic">Платежная система </tspan><tspan x="12" y="46" dominant-baseline="ideographic">обрабатывает оплату.</tspan></text></g></g></g><g id="g-root-tf_mgq1su1g1v5x-stroke" data-item-order="-1063656"></g><g id="g-root-cp_0_g-0_zrjwri1g8utf-stroke" data-item-order="-915038" transform="translate(356, 164)"><g id="cp_0_g-0_zrjwri1g8utf-stroke" fill="none" stroke-linecap="round" stroke-linejoin="round" stroke-miterlimit="4" stroke="#ffffff" stroke-width="2"><g><path d="M 730 10L 640 64L 640 118L 550 172L 550 226L 460 280L 460 334L 370 388.0029L 370 442L 280 496L 280 550L 190 604L 190 658L 100 712L 10 658L 10 673.6089L 100 727.6089L 202 666.1089L 202 612.009L 292 558L 292 504.009L 382 449.9815L 382 396.0119L 472 341.9996L 472 288.0089L 562 234.0035L 562 176.4L 652 125.9943L 652 72.0089L 730 25.6089L 730 10Z"></path></g></g><g id="cp_0_g-0_zrjwri1g8utf-stroke" fill="none" stroke-linecap="round" stroke-linejoin="round" stroke-miterlimit="4" stroke="#ffffff" stroke-width="2"><g><path d="M 640 64L 550 10L 550 64L 640 118L 640 64Z"></path></g></g><g id="cp_0_g-0_zrjwri1g8utf-stroke" fill="none" stroke-linecap="round" stroke-linejoin="round" stroke-miterlimit="4" stroke="#ffffff" stroke-width="2"><g><path d="M 550 172L 460 118L 460 172L 550 226L 550 172Z"></path></g></g><g id="cp_0_g-0_zrjwri1g8utf-stroke" fill="none" stroke-linecap="round" stroke-linejoin="round" stroke-miterlimit="4" stroke="#ffffff" stroke-width="2"><g><path d="M 460 280L 370 226L 370 280L 460 334L 460 280Z"></path></g></g><g id="cp_0_g-0_zrjwri1g8utf-stroke" fill="none" stroke-linecap="round" stroke-linejoin="round" stroke-miterlimit="4" stroke="#ffffff" stroke-width="2"><g><path d="M 370 388L 280 334L 280 388L 370 442L 370 388Z"></path></g></g><g id="cp_0_g-0_zrjwri1g8utf-stroke" fill="none" stroke-linecap="round" stroke-linejoin="round" stroke-miterlimit="4" stroke="#ffffff" stroke-width="2"><g><path d="M 280 496L 190 442L 190 496L 280 550L 280 496Z"></path></g></g><g id="cp_0_g-0_zrjwri1g8utf-stroke" fill="none" stroke-linecap="round" stroke-linejoin="round" stroke-miterlimit="4" stroke="#ffffff" stroke-width="2"><g><path d="M 190 604L 100 550L 100 605L 190 658L 190 604Z"></path></g></g></g><g id="g-root-cp_1_g-1_mg3ee61g8wej-stroke" data-item-order="-915022" transform="translate(356, 758)"><g id="cp_1_g-1_mg3ee61g8wej-stroke" fill="none" stroke-linecap="round" stroke-linejoin="round" stroke-miterlimit="4" stroke="#ffffff" stroke-width="2"><g><path d="M 100 10L 10 64L 100 118L 190 64L 100 10ZM 29 64L 100 22L 171 64L 100 106L 29 64Z"></path></g></g></g><g id="g-root-cp_2_g-2_i09w9q1g8x6t-stroke" data-item-order="-915018" transform="translate(446, 650)"><g id="cp_2_g-2_i09w9q1g8x6t-stroke" fill="none" stroke-linecap="round" stroke-linejoin="round" stroke-miterlimit="4" stroke="#ffffff" stroke-width="2"><g><path d="M 100 10L 10 64L 100 118L 190 64L 100 10ZM 29 64L 100 22L 171 64L 100 106L 29 64Z"></path></g></g></g><g id="g-root-cp_3_g-3_959d3y1g8utr-stroke" data-item-order="-915014" transform="translate(536, 542)"><g id="cp_3_g-3_959d3y1g8utr-stroke" fill="none" stroke-linecap="round" stroke-linejoin="round" stroke-miterlimit="4" stroke="#ffffff" stroke-width="2"><g><path d="M 100 10L 10 64L 100 118L 190 64L 100 10ZM 29 64L 100 22L 171 64L 100 106L 29 64Z"></path></g></g></g><g id="g-root-cp_4_g-4_4pfuzi1g8vm1-stroke" data-item-order="-915010" transform="translate(626, 434)"><g id="cp_4_g-4_4pfuzi1g8vm1-stroke" fill="none" stroke-linecap="round" stroke-linejoin="round" stroke-miterlimit="4" stroke="#ffffff" stroke-width="2"><g><path d="M 100 10L 10 64L 100 118L 190 64L 100 10ZM 29 64L 100 22L 171 64L 100 106L 29 64Z"></path></g></g></g><g id="g-root-cp_5_g-5_9mcv21g8web-stroke" data-item-order="-915006" transform="translate(716, 326)"><g id="cp_5_g-5_9mcv21g8web-stroke" fill="none" stroke-linecap="round" stroke-linejoin="round" stroke-miterlimit="4" stroke="#ffffff" stroke-width="2"><g><path d="M 100 10L 10 64L 100 118L 190 64L 100 10ZM 29 64L 100 22L 171 64L 100 106L 29 64Z"></path></g></g></g><g id="g-root-cp_6_g-6_1qf3ela1g8wzx-stroke" data-item-order="-915002" transform="translate(806, 218)"><g id="cp_6_g-6_1qf3ela1g8wzx-stroke" fill="none" stroke-linecap="round" stroke-linejoin="round" stroke-miterlimit="4" stroke="#ffffff" stroke-width="2"><g><path d="M 100 10L 10 64L 100 118L 190 64L 100 10ZM 29 64L 100 22L 171 64L 100 106L 29 64Z"></path></g></g></g><g id="g-root-cp_7_g-7_1cu9rxa1ga9zj-stroke" data-item-order="-914998" transform="translate(896, 110)"><g id="cp_7_g-7_1cu9rxa1ga9zj-stroke" fill="none" stroke-linecap="round" stroke-linejoin="round" stroke-miterlimit="4" stroke="#ffffff" stroke-width="2"><g><path d="M 100 10L 10 64L 100 118L 190 64L 100 10ZM 29 64L 100 22L 171 64L 100 106L 29 64Z"></path></g></g></g><g id="g-root-cp_2_text-2_18eg9su1gaart-stroke" data-item-order="-914980" transform="translate(170, 656)"><g id="cp_2_text-2_18eg9su1gaart-stroke" fill="none" stroke-linecap="round" stroke-linejoin="round" stroke-miterlimit="4" stroke="#ffffff" stroke-width="2"><g><path d="M 10 10L 16 10L 16 106L 10 106Z"></path></g></g></g><g id="g-root-cp_3_text-3_13ymroe1gabk2-stroke" data-item-order="-914968" transform="translate(260, 560)"><g id="cp_3_text-3_13ymroe1gabk2-stroke" fill="none" stroke-linecap="round" stroke-linejoin="round" stroke-miterlimit="4" stroke="#ffffff" stroke-width="2"><g><path d="M 10 10L 16 10L 16 82L 10 82Z"></path></g></g></g><g id="g-root-cp_1_text-1_v3m8im1ga96z-stroke" data-item-order="-914956" transform="translate(80, 782)"><g id="cp_1_text-1_v3m8im1ga96z-stroke" fill="none" stroke-linecap="round" stroke-linejoin="round" stroke-miterlimit="4" stroke="#ffffff" stroke-width="2"><g><path d="M 10 10L 16 10L 16 106L 10 106Z"></path></g></g></g><g id="g-root-cp_4_text-4_qnsqe61ga9z8-stroke" data-item-order="-914944" transform="translate(350, 434)"><g id="cp_4_text-4_qnsqe61ga9z8-stroke" fill="none" stroke-linecap="round" stroke-linejoin="round" stroke-miterlimit="4" stroke="#ffffff" stroke-width="2"><g><path d="M 10 10L 16 10L 16 118L 10 118Z"></path></g></g></g><g id="g-root-cp_5_text-5_hs5q5a1gaarx-stroke" data-item-order="-914932" transform="translate(440, 332)"><g id="cp_5_text-5_hs5q5a1gaarx-stroke" fill="none" stroke-linecap="round" stroke-linejoin="round" stroke-miterlimit="4" stroke="#ffffff" stroke-width="2"><g><path d="M 10 10L 16 10L 16 106L 10 106Z"></path></g></g></g><g id="g-root-cp_6_text-6_dcc80u1gabk6-stroke" data-item-order="-914920" transform="translate(530, 236)"><g id="cp_6_text-6_dcc80u1gabk6-stroke" fill="none" stroke-linecap="round" stroke-linejoin="round" stroke-miterlimit="4" stroke="#ffffff" stroke-width="2"><g><path d="M 10 10L 16 10L 16 82L 10 82Z"></path></g></g></g><g id="g-root-cp_7_text-7_4hbov21ga973-stroke" data-item-order="-914908" transform="translate(620, 116)"><g id="cp_7_text-7_4hbov21ga973-stroke" fill="none" stroke-linecap="round" stroke-linejoin="round" stroke-miterlimit="4" stroke="#ffffff" stroke-width="2"><g><path d="M 10 10L 16 10L 16 106L 10 106Z"></path></g></g></g><g id="g-root-ic_phon_1q8unq61ga9l5-stroke" data-item-order="-2304" transform="translate(422, 788)"></g><g id="g-root-ic_chec_8x5db21fusqv-stroke" data-item-order="-2304" transform="translate(962, 140)"></g><g id="g-root-ic_full_4mbkpq1fuux6-stroke" data-item-order="-2304" transform="translate(512, 680)"></g><g id="g-root-ic_1_1lz9zmm1ga96u-stroke" data-item-order="-2304" transform="translate(872, 248)"></g><g id="g-root-ic_paym_93e10e1fz0gb-stroke" data-item-order="-2304" transform="translate(602, 572)"></g><g id="g-root-ic_off_146r0ym1g7imd-stroke" data-item-order="-2304" transform="translate(782, 356)"></g><g id="g-root-ic_chec_quo1i61g4o3w-stroke" data-item-order="-2304" transform="translate(692, 464)"></g><g id="g-root-tx__zqxlzy1fz0n5-stroke" data-item-order="0" transform="translate(368, 434)"></g><g id="g-root-tx__14802am1fz20y-stroke" data-item-order="0" transform="translate(368, 470)"></g><g id="g-root-tx_4_m8lvoe1g0h6z-stroke" data-item-order="0" transform="translate(296, 434)"></g><g id="g-root-tx__14309lq1g0g05-stroke" data-item-order="0" transform="translate(458, 392)"></g><g id="g-root-tx_3_ddlcim1fz1fx-stroke" data-item-order="0" transform="translate(206, 560)"></g><g id="g-root-tx__zlbc7y1g0hs4-stroke" data-item-order="0" transform="translate(458, 332)"></g><g id="g-root-tx__hznli61fxouj-stroke" data-item-order="0" transform="translate(278, 560)"></g><g id="g-root-tx_5_v98om61g0ft2-stroke" data-item-order="0" transform="translate(386, 332)"></g><g id="g-root-tx__v2zxr21fz0uc-stroke" data-item-order="0" transform="translate(278, 596)"></g><g id="g-root-tx_2_dil57i1fxngq-stroke" data-item-order="0" transform="translate(116, 656)"></g><g id="g-root-tx__v64b6m1fxnuw-stroke" data-item-order="0" transform="translate(188, 656)"></g><g id="g-root-tx__1464n1a1g0gen-stroke" data-item-order="0" transform="translate(548, 236)"></g><g id="g-root-tx__znt8ke1fxm2x-stroke" data-item-order="0" transform="translate(188, 692)"></g><g id="g-root-tx_6_18f2x7i1g1vd5-stroke" data-item-order="0" transform="translate(476, 236)"></g><g id="g-root-tx__1q9hb4u1g1u6b-stroke" data-item-order="0" transform="translate(638, 176)"></g><g id="g-root-tx_1_mdloda1fz37s-stroke" data-item-order="0" transform="translate(26, 782)"></g><g id="g-root-tx__v7d9cu1fz3ev-stroke" data-item-order="0" transform="translate(98, 842)"></g><g id="g-root-tx__qqat261fz212-stroke" data-item-order="0" transform="translate(98, 782)"></g><g id="g-root-tx__1lrsdr21g1vya-stroke" data-item-order="0" transform="translate(638, 116)"></g><g id="g-root-tx_7_18k2pwe1g1urw-stroke" data-item-order="0" transform="translate(566, 116)"></g><g id="g-root-tx__1d30lge1g0hs0-stroke" data-item-order="0" transform="translate(548, 272)"></g></g></g></svg>